<?xml version="1.0" ?><svg enable-background="new 0 0 32 32" id="FILLED" version="1.1" viewBox="0 0 32 32" xml:space="preserve" xmlns="http://www.w3.org/2000/svg" xmlns:xlink="http://www.w3.org/1999/xlink"><g><g><path d="M28.083,12.606c0-6.687-5.41-12.107-12.083-12.107S3.917,5.92,3.917,12.606    c0,5.392,3.52,9.956,8.381,11.523L16,30.952l3.702-6.823C24.563,22.562,28.083,17.998,28.083,12.606z" fill="#FF0000"/><path d="M16,32.001l-4.046-7.459c-5.115-1.738-8.537-6.509-8.537-11.936C3.417,5.654,9.061-0.001,16-0.001    s12.583,5.655,12.583,12.607c0,5.427-3.422,10.197-8.536,11.936L16,32.001z M16,0.999c-6.387,0-11.583,5.207-11.583,11.607    c0,5.059,3.229,9.498,8.035,11.048l0.19,0.062L16,29.903l3.358-6.188l0.19-0.062c4.806-1.55,8.034-5.989,8.034-11.048    C27.583,6.206,22.386,0.999,16,0.999z"/></g><g><g><path d="M18.135,5.712c0,0-3.07,0-4.121,0c-1.885,0-3.66,1.326-3.66,2.983c0,1.693,1.285,3.01,3.203,3.01     c0.134,0,0.263-0.03,0.39-0.04c-0.126,0.238-0.213,0.494-0.213,0.773c0,0.471,0.252,0.847,0.571,1.158     c-0.239,0-0.474,0.003-0.729,0.003c-2.335,0.001-4.133,1.49-4.133,3.035c0,1.522,1.971,2.475,4.306,2.475     c2.663,0,4.133-1.515,4.133-3.037c0-1.22-0.36-1.951-1.47-2.74c-0.38-0.269-1.107-0.924-1.107-1.31     c0-0.451,0.128-0.674,0.808-1.206c0.695-0.544,1.187-1.193,1.187-2.084c0-1.059-0.455-2.351-1.339-2.351h1.504L18.135,5.712z      M16.751,15.809c0.032,0.142,0.051,0.287,0.051,0.435c0,1.23-0.792,2.191-3.062,2.191c-1.614,0-2.78-1.023-2.78-2.253     c0-1.205,1.446-2.209,3.061-2.191c0.376,0.004,0.727,0.065,1.046,0.167C15.945,14.769,16.573,15.114,16.751,15.809z      M14.166,11.221c-1.084-0.031-2.114-1.214-2.3-2.639c-0.187-1.427,0.54-2.518,1.623-2.486c1.083,0.033,2.114,1.178,2.3,2.603     C15.976,10.125,15.249,11.253,14.166,11.221z" fill="#FFFFFF"/></g><g><polygon fill="#FFFFFF" points="21.477,11.066 21.477,9.056 20.14,9.056 20.14,11.066 18.135,11.066 18.135,12.405 20.14,12.405      20.14,14.415 21.477,14.415 21.477,12.405 23.482,12.405 23.482,11.066    "/></g></g></g></svg>