<?xml version="1.0" ?><svg enable-background="new 0 0 32 32" id="FILLED" version="1.1" viewBox="0 0 32 32" xml:space="preserve" xmlns="http://www.w3.org/2000/svg" xmlns:xlink="http://www.w3.org/1999/xlink"><g><g><path d="M28.083,12.606c0-6.687-5.41-12.107-12.083-12.107S3.917,5.92,3.917,12.606    c0,5.392,3.52,9.956,8.381,11.523L16,30.952l3.702-6.823C24.563,22.562,28.083,17.998,28.083,12.606z" fill="#FF0000"/><path d="M16,32.001l-4.047-7.46c-5.114-1.736-8.536-6.508-8.536-11.935C3.417,5.654,9.062-0.001,16-0.001    s12.583,5.655,12.583,12.607c0,5.427-3.422,10.197-8.537,11.935L16,32.001z M16,0.999c-6.387,0-11.583,5.207-11.583,11.607    c0,5.059,3.229,9.498,8.034,11.047l0.19,0.062L16,29.903l3.357-6.188l0.19-0.062c4.806-1.549,8.035-5.988,8.035-11.047    C27.583,6.206,22.387,0.999,16,0.999z"/></g><g><path d="M22.43,18.419v-4.764c0-2.553-1.36-3.741-3.173-3.741c-1.463,0-2.119,0.807-2.484,1.373v-1.177h-2.757    c0.037,0.78,0,8.31,0,8.31h2.757v-4.641c0-0.248,0.018-0.496,0.091-0.673c0.199-0.496,0.652-1.01,1.414-1.01    c0.998,0,1.397,0.762,1.397,1.879v4.446L22.43,18.419L22.43,18.419z M11.111,8.975c0.961,0,1.56-0.639,1.56-1.436    c-0.018-0.815-0.599-1.435-1.542-1.435S9.57,6.723,9.57,7.538c0,0.798,0.598,1.436,1.524,1.436H11.111z M12.49,18.419v-8.31H9.734    v8.31H12.49z" fill="#FFFFFF"/></g></g></svg>